<svg width="24" height="24" viewBox="0 0 24 24" fill="none" xmlns="http://www.w3.org/2000/svg">
  <path d="M7 2C3.686 2 1 4.686 1 8V16C1 19.314 3.686 22 7 22H17C20.314 22 23 19.314 23 16V8C23 4.686 20.314 2 17 2H7ZM17 4C19.209 4 21 5.791 21 8V16C21 18.209 19.209 20 17 20H7C4.791 20 3 18.209 3 16V8C3 5.791 4.791 4 7 4H17ZM17.5 6.5C16.671 6.5 16 7.171 16 8C16 8.829 16.671 9.5 17.5 9.5C18.329 9.5 19 8.829 19 8C19 7.171 18.329 6.5 17.5 6.5ZM12 7C9.238 7 7 9.238 7 12C7 14.762 9.238 17 12 17C14.762 17 17 14.762 17 12C17 9.238 14.762 7 12 7ZM12 9C13.654 9 15 10.346 15 12C15 13.654 13.654 15 12 15C10.346 15 9 13.654 9 12C9 10.346 10.346 9 12 9Z" fill="white"/>
</svg>